<?xml version="1.0" encoding="iso-8859-1"?>
<!-- Generator: Adobe Illustrator 19.0.0, SVG Export Plug-In . SVG Version: 6.00 Build 0)  -->
<svg version="1.1" id="Layer_1" xmlns="http://www.w3.org/2000/svg" xmlns:xlink="http://www.w3.org/1999/xlink" x="0px" y="0px"
	 viewBox="0 0 512.01 512.01" style="enable-background:new 0 0 512.01 512.01;" xml:space="preserve">
<circle style="fill:#ADE6EA;" cx="256.005" cy="337.686" r="174.324"/>
<path style="fill:#76C0C4;" d="M256.005,163.359c96.275,0,174.321,78.048,174.321,174.322s-78.046,174.32-174.321,174.32
	C256.005,406.322,256.005,218.838,256.005,163.359z"/>
<path style="fill:#BFE436;" d="M278.636,360.64c21.705-22.961-5.246-49.516-32.48-49.516c-35.066,0-59.985-11.286-58.724-38.41
	c1.043-22.428,27.239-7.511,43.006-39.112c4.802-9.624-2.933-21.451-6.273-30.669c-4.088-11.282-8.106-22.61-11.113-34.236
	c-48.062,12.18-88.158,44.325-110.96,87.091l-0.518,3.623c4.355,13.931,12.462,27.382,23.374,37.174
	c9.737,8.737,22.603,13.784,27.847,26.854c4.195,10.457-0.343,20.648,6.264,30.593c5.929,8.927,14.028,16.659,15.902,27.69
	c2.196,12.934,4.616,24.039,10.052,36.188c4.461,9.972,9.368,19.93,11.907,30.614c1.74,7.32,3.504,17.491,13.758,16.552
	c9.247-0.846,10.953-10.549,11.867-18.084c1.207-9.945,3.434-17.771,12.799-23.258c12.177-7.135,8.553-10.33,9.194-23.564
	c0.306-6.312,2.991-11.876,6.849-16.774C258.763,374.039,270.557,369.186,278.636,360.64z"/>
<g>
	<path style="fill:#A4D95E;" d="M256.262,312.309l-0.258,66.196c7.098-6.44,16.086-10.94,22.633-17.865
		C297.628,340.549,279.368,317.706,256.262,312.309z"/>
	<path style="fill:#A4D95E;" d="M401.678,316.153c-12.215-2.395-24.51-8.645-37.2-7.621c-13.808,1.115-25.929,16.004-26.214,29.609
		c-0.201,9.587,5.436,17.333,13.841,21.487c14.109,6.974,35.207,14.669,31.457,33.826c-3.381,17.276-18.701,47.729,10.933,50.089
		c22.47-29.351,35.831-66.045,35.831-105.864c0-10.128-0.874-20.05-2.531-29.705h-2.235
		C423.158,317.922,409.567,317.7,401.678,316.153z"/>
	<path style="fill:#A4D95E;" d="M310.891,234.342c17.204,18.031,46.189,6.909,53.789,6.203c7.49-0.696,13.828-19.061,15.164-25.538
		c-18.111-18.283-40.241-32.572-64.955-41.441C289.386,183.146,293.688,216.312,310.891,234.342z"/>
</g>
<path style="fill:#F1D849;" d="M256.006,274.568c0,0,85.592-122.546,85.592-188.089C341.598,38.742,303.279,0,256.006,0
	s-85.592,38.742-85.592,86.479C170.414,152.022,256.006,274.568,256.006,274.568z"/>
<path style="fill:#E8A944;" d="M256.006,274.568c0,0,85.592-122.546,85.592-188.089C341.598,38.742,303.279,0,256.006,0
	C256.006,32.413,256.006,274.568,256.006,274.568z"/>
<circle style="fill:#F7F7F8;" cx="256.016" cy="86.995" r="40.86"/>
<path style="fill:#E9E9EA;" d="M296.875,86.996c0,22.567-18.294,40.86-40.86,40.86V46.137
	C278.581,46.137,296.875,64.429,296.875,86.996z"/>
<g>
</g>
<g>
</g>
<g>
</g>
<g>
</g>
<g>
</g>
<g>
</g>
<g>
</g>
<g>
</g>
<g>
</g>
<g>
</g>
<g>
</g>
<g>
</g>
<g>
</g>
<g>
</g>
<g>
</g>
</svg>
